<svg xmlns="http://www.w3.org/2000/svg" aria-hidden="true" overflow="hidden" style="width:0;height:0;position:absolute"><defs><symbol id="burger" viewBox="0 0 43 32"><path d="M.592 3.556c0-1.146.929-2.075 2.075-2.075H40a2.075 2.075 0 1 1 0 4.15H2.667A2.075 2.075 0 0 1 .592 3.556zm0 12.51a2.075 2.075 0 0 1 2.075-2.073H40a2.076 2.076 0 0 1 .003 4.148H2.667a2.075 2.075 0 0 1-2.075-2.075zm2.075 10.437a2.076 2.076 0 0 0-.003 4.148H40l.061.001a2.075 2.075 0 1 0 0-4.15l-.064.001H40 2.667z"/></symbol><symbol id="logo" viewBox="0 0 41 32"><path fill="#ffe550" style="fill:var(--color1,#ffe550)" d="M14.121 6.486c1.014-1.99 3.864-1.99 4.878 0l1.263 2.476a2.741 2.741 0 0 0 1.992 1.456l.016.002 2.759.439c2.203.351 3.082 3.042 1.508 4.62l-1.986 1.991a2.716 2.716 0 0 0-.761 2.364l-.002-.016.436 2.769c.347 2.202-1.957 3.868-3.948 2.854l-2.472-1.258c-.362-.188-.79-.298-1.244-.298s-.882.11-1.26.306l.015-.007-2.471 1.258c-1.991 1.014-4.295-.652-3.948-2.854l.437-2.769a2.719 2.719 0 0 0-.764-2.349l-1.986-1.99c-1.574-1.577-.695-4.269 1.508-4.62l2.759-.439a2.748 2.748 0 0 0 2.001-1.443l.007-.015 1.263-2.476z"/><path fill="#2c2c2c" style="fill:var(--color4,#2c2c2c)" d="m1.118 20.356-.022.005c.002.074-.001.374-.012.9-.003.524-.004.869-.003 1.033 0 .158-.004.286-.01.384l.001.337c0 .105-.008.207-.022.308l.001-.012-.018.207c-.014.13-.042.201-.085.211-.092.022-.236-.049-.433-.212-.198-.17-.311-.319-.342-.446s-.037-1.061-.021-2.8c.023-1.74-.023-2.885-.137-3.434a.403.403 0 0 1 .015-.275l-.001.003c.036-.166.22-.321.553-.468.34-.148.847-.302 1.521-.461.682-.161 1.223-.252 1.623-.272.407-.022.626.031.656.159.02.085-.026.159-.138.223a4.95 4.95 0 0 1-.265.145l-.034.015c-.089.037-.206.082-.35.139-.329.105-.463.153-.597.202l.192-.061c-.126.037-.289.091-.49.161-.194.068-.374.133-.538.194-.167.055-.392.134-.675.238s-.466.17-.549.197c.012.02.023.051.033.094.078.333.121 1.13.127 2.393a10.907 10.907 0 0 0 1.487-.39l-.078.023c.501-.164.809-.258.922-.286.27-.063.418-.039.445.074.052.22-.214.477-.796.772a8.744 8.744 0 0 1-1.96.7zm6.953-1.959a2.02 2.02 0 0 0-.283-.66l.005.007c-.13-.201-.281-.334-.454-.398-.458.25-.791.729-.998 1.436-.202.699-.239 1.321-.11 1.866s.345.853.646.924c.487-.22.839-.67 1.053-1.348.22-.688.267-1.297.142-1.828zm-2.779.758a4.094 4.094 0 0 1 .647-1.589c.32-.457.689-.735 1.108-.834.426-.101.823-.004 1.193.289.368.287.613.689.735 1.206.121.511.12 1.064-.001 1.661a3.783 3.783 0 0 1-.719 1.572c-.351.449-.772.732-1.262.849-.362.086-.703-.009-1.023-.286s-.54-.668-.661-1.178c-.122-.517-.128-1.08-.017-1.69zm7.604-1.9a2.018 2.018 0 0 0-.282-.66l.005.007c-.13-.201-.281-.334-.454-.398-.458.25-.791.729-.998 1.437-.202.698-.239 1.321-.11 1.866s.345.854.646.924c.487-.22.839-.67 1.052-1.349.22-.688.267-1.297.142-1.828zm-2.778.758a4.094 4.094 0 0 1 .647-1.589c.319-.457.689-.735 1.108-.834.426-.101.823-.004 1.193.29.368.287.613.689.735 1.206.121.51.121 1.063-.001 1.66a3.784 3.784 0 0 1-.726 1.581l.006-.008c-.351.45-.771.732-1.262.849-.362.086-.703-.009-1.023-.285s-.54-.669-.661-1.179c-.122-.517-.128-1.08-.017-1.69zm7.816-6.999c.113-.027.277.047.49.22.219.165.351.34.394.524s.079.729.106 1.636c.025.898.029 1.836.012 2.812-.022 2.19-.114 3.303-.278 3.342-.099.023-.223-.01-.373-.102-.143-.101-.226-.197-.248-.289s-.041-.282-.056-.57c-.529.873-1.052 1.371-1.57 1.494-.313.074-.63 0-.953-.223-.316-.225-.51-.489-.582-.794-.103-.439-.11-.987-.018-1.644a5.616 5.616 0 0 1 .656-1.93l-.015.028c.33-.602.748-.962 1.252-1.082s.926.098 1.268.654c.007-1.588-.074-2.821-.245-3.7-.05-.212.002-.337.159-.374zm.061 5.494c-.09-.382-.234-.689-.431-.919-.19-.232-.377-.326-.561-.282-.305.073-.574.334-.804.785a4.532 4.532 0 0 0-.457 1.452l-.003.025c-.071.526-.064.966.02 1.32a.394.394 0 0 0 .209.274l.002.001c.111.056.23.069.358.039.277-.066.602-.352.977-.86a3.585 3.585 0 0 0 .702-1.647l.002-.135-.012-.053zm6.798-.644c.137.581-.01 1.132-.441 1.652a3.043 3.043 0 0 1-1.673 1.013c-.674.16-1.273.118-1.795-.125-.524-.25-.823-.53-.897-.842-.05-.212-.011-.334.117-.364.113-.027.377.09.791.351.156.09.353.163.591.219.245.054.489.053.73-.004.497-.118.907-.35 1.231-.695.33-.347.46-.67.39-.967-.046-.191-.231-.406-.557-.642s-.676-.449-1.05-.638a8.126 8.126 0 0 1-1.066-.677l.021.015c-.327-.244-.513-.455-.554-.632a1.669 1.669 0 0 1-.026-.597l-.001.009c.025-.215.068-.378.132-.491.205-.37.568-.751 1.09-1.145.529-.394.993-.638 1.39-.732.206-.049.396-.023.569.078s.278.226.314.375c.017.071-.044.145-.184.223-.126.074-.336.184-.549.29l-.092.042c-.283.134-.53.275-.743.423-.743.505-1.08.902-1.011 1.193.037.156.555.493 1.555 1.012.385.201.748.455 1.091.763.348.299.558.597.628.895zm2.445.532c.032.135.126.183.282.146.27-.064.578-.215.927-.455.354-.248.552-.377.594-.387.128-.031.207.022.24.156.048.206-.109.494-.471.863-.355.368-.706.593-1.055.676-.34.081-.646.055-.917-.074-.273-.137-.432-.305-.479-.504s-.063-.46-.05-.784c.012-.332.036-.768.074-1.308.042-.549.07-1.001.084-1.355-.315.157-.529.249-.643.276s-.24-.003-.381-.089c-.135-.095-.215-.196-.24-.302-.041-.17.383-.442 1.269-.817a7.654 7.654 0 0 0-.178-1.607c-.05-.213-.004-.336.138-.369.121-.029.288.014.503.127.212.107.342.256.386.447s.065.542.058 1.052c.229-.084.548-.181.873-.265l.083-.018c.426-.1.661-.059.705.126.025.106-.071.222-.289.348-.21.125-.667.349-1.37.673-.017.594-.053 1.28-.11 2.057-.058.769-.068 1.231-.032 1.387zm4.764-5.57c.319-.076.652.017.999.279.345.255.549.513.61.775.06.255.034.538-.08.849.11.086.174.168.193.246.047.198.081.549.103 1.052.029.502.05.83.064.983a3.387 3.387 0 0 1 .05.64c.014.183-.03.287-.129.311-.127.031-.26-.054-.397-.254-.132-.209-.246-.488-.345-.839-.443.95-.934 1.489-1.473 1.617-.326.077-.682.015-1.067-.185-.38-.21-.604-.463-.674-.761-.101-.425-.068-.986.097-1.684.163-.704.436-1.359.817-1.966s.792-.962 1.233-1.066zm.932 1.754c-.156-.658-.365-.957-.628-.895-.277.066-.553.34-.828.825a5.778 5.778 0 0 0-.615 1.509l-.009.041c-.138.556-.173.98-.105 1.27a.373.373 0 0 0 .217.261l.002.001a.609.609 0 0 0 .377.023c.334-.079.657-.391.97-.936.312-.553.473-1.17.484-1.854-.004-.111.042-.19.136-.234l-.002-.011z"/><path fill="#bbf330" style="fill:var(--color2,#bbf330)" d="M30.751 19.975a.92.92 0 0 0-.642.597l-.002.006c-1.907 5.652-7.247 9.717-13.529 9.717-3.81 0-7.274-1.495-9.835-3.934a.917.917 0 0 0-.859-.233l.006-.001c-.641.159-.884.932-.409 1.39a15.87 15.87 0 0 0 11.076 4.482h.021-.001c7.079 0 13.084-4.606 15.186-10.986.207-.626-.371-1.198-1.013-1.04zM1.865 14.148a.908.908 0 0 0 .668-.725C3.745 6.755 9.577 1.705 16.579 1.705c4.553 0 8.611 2.135 11.226 5.463.22.281.583.416.93.33.585-.145.85-.823.481-1.298C26.291 2.428 21.718 0 16.577 0 8.695 0 2.144 5.711.831 13.223c-.103.593.449 1.07 1.034.925zm38.75-8.816c-3.778 7.241-5.436 2.465-10.755 5.27.532-8.405 6.165-3.291 10.755-5.27z"/></symbol><symbol id="icon-arrow-left" viewBox="0 0 37 32"><path d="M2.667 21.333v-16A5.333 5.333 0 0 1 8 0h21.333a5.333 5.333 0 0 1 5.333 5.333v16a5.333 5.333 0 0 1-5.333 5.333H8a5.333 5.333 0 0 1-5.333-5.333z" fill="var(--color1, #fefefe)"/><path d="m11.633 13.937 9.289 8.85a.832.832 0 0 0 1.15 0l.01-.01a.764.764 0 0 0 0-1.111l-8.747-8.333 8.747-8.33a.765.765 0 0 0 .001-1.112l-.01-.01a.832.832 0 0 0-1.15 0l-9.289 8.85a.832.832 0 0 0 0 1.206z" fill="var(--color2, #2c2c2c)"/></symbol><symbol id="icon-arrow-right" viewBox="0 0 37 32"><path d="M34.667 5.333v16a5.333 5.333 0 0 1-5.333 5.333H8.001a5.333 5.333 0 0 1-5.333-5.333v-16A5.333 5.333 0 0 1 8.001 0h21.333a5.333 5.333 0 0 1 5.333 5.333z" fill="var(--color1, #fefefe)"/><path d="m25.7 12.73-9.289-8.85a.832.832 0 0 0-1.15 0l-.01.01a.764.764 0 0 0 0 1.111l8.747 8.333-8.747 8.331a.764.764 0 0 0 0 1.111l.01.01a.832.832 0 0 0 1.15 0l9.289-8.85a.832.832 0 0 0 0-1.206z" fill="var(--color2, #2c2c2c)"/></symbol><symbol id="icon-close" viewBox="0 0 30 32"><path d="m16.219 14.826 4.928-4.923a1.013 1.013 0 0 0-1.431-1.428l.001-.001-4.927 4.874-4.959-4.955a1.014 1.014 0 0 0-1.427 1.429l-.001-.002 4.948 5.006-4.847 4.782a1.013 1.013 0 1 0 1.429 1.43l.001-.001 4.836-4.832 4.806 4.801a1.014 1.014 0 0 0 1.427-1.429l.001.002-4.785-4.751z"/></symbol><symbol id="icon-menu" viewBox="0 0 32 32"><path d="M2.666 8c0-.737.597-1.334 1.334-1.334h24a1.334 1.334 0 1 1 0 2.668H4A1.334 1.334 0 0 1 2.666 8zm0 8.042A1.335 1.335 0 0 1 4 14.709h24l.039-.001a1.334 1.334 0 1 1 0 2.668l-.041-.001H28 4a1.334 1.334 0 0 1-1.334-1.334zM4 22.752a1.334 1.334 0 0 0-.002 2.666H28l.039.001a1.334 1.334 0 1 0 0-2.668l-.041.001H28 4z" fill="var(--color3, #7eb101)"/></symbol><symbol id="icon-rocket" viewBox="0 0 32 32"><path d="m7.233 13.633 3.534 1.5c.4-.8.827-1.588 1.283-2.366s.939-1.522 1.45-2.234L10.867 10l-3.634 3.633zm5.134 2.7 4.433 4.434a25.986 25.986 0 0 0 3.663-2.027l-.096.06c1.11-.733 2.01-1.444 2.7-2.133 1.8-1.8 3.122-3.645 3.966-5.534s1.3-4.022 1.367-6.4c-2.378.067-4.511.523-6.4 1.367s-3.733 2.167-5.533 3.967c-.69.689-1.4 1.589-2.134 2.7a25.405 25.405 0 0 0-1.899 3.404l-.067.162zm7.633-3.2c-.444-.444-.667-.994-.667-1.65 0-.655.223-1.205.667-1.65s.994-.666 1.65-.666 1.206.222 1.65.666c.444.445.667.995.667 1.65s-.223 1.206-.667 1.65c-.444.445-.994.667-1.65.667s-1.206-.222-1.65-.667zM19.5 25.9l3.633-3.633-.533-2.634c-.711.512-1.456.995-2.233 1.45-.572.349-1.347.776-2.137 1.178l-.23.106 1.5 3.533zM30.367 2.767c.2 3.022-.178 5.777-1.134 8.266-.955 2.49-2.533 4.834-4.733 7.034l-.067.066-.066.067.733 3.667c.067.333.05.655-.05.966-.1.312-.272.59-.517.834l-5.7 5.733L16 22.8l-5.667-5.667-6.6-2.833 5.734-5.7c.244-.244.522-.417.833-.517s.633-.116.967-.05l3.666.734a.247.247 0 0 1 .066-.049L15 8.717a.26.26 0 0 0 .067-.05c2.2-2.2 4.544-3.784 7.033-4.75s5.244-1.35 8.267-1.15zm-24.4 18.4c.777-.778 1.727-1.173 2.85-1.184 1.122-.01 2.072.373 2.85 1.15.777.778 1.16 1.728 1.15 2.85-.011 1.123-.406 2.073-1.184 2.85-.577.578-1.472 1.056-2.683 1.434S5.922 29 3.5 29.333c.333-2.422.683-4.244 1.05-5.466s.839-2.123 1.417-2.7zm1.4 1.433c-.311.333-.59.856-.834 1.567S6.078 25.789 5.9 26.9c1.111-.178 2.022-.389 2.733-.633.711-.245 1.234-.523 1.567-.834.422-.377.639-.85.65-1.416l.001-.061a2.02 2.02 0 0 0-.584-1.423 2.021 2.021 0 0 0-1.423-.584l-.064.001h.003a1.87 1.87 0 0 0-1.414.648l-.002.002z" fill="var(--color3, #7eb101)"/></symbol><symbol id="icon-star" viewBox="0 0 34 32"><path d="M15.42 1.038c.584-1.384 2.576-1.384 3.16 0L22.028 9.2c.246.582.804.98 1.444 1.032l8.952.706c1.516.12 2.132 1.982.976 2.958l-6.82 5.752a1.666 1.666 0 0 0-.55 1.682l-.002-.011 2.084 8.6c.352 1.456-1.258 2.608-2.556 1.828l-7.664-4.61a1.734 1.734 0 0 0-1.792.004l.008-.004-7.664 4.61c-1.3.78-2.908-.372-2.556-1.828l2.084-8.6a1.663 1.663 0 0 0-.55-1.667l-.003-.002-6.82-5.75c-1.156-.976-.54-2.84.976-2.96l8.952-.704a1.714 1.714 0 0 0 1.44-1.021l.004-.011 3.448-8.164z" fill="var(--color4, #ffe550)"/></symbol><symbol id="icon-touch-app" viewBox="0 0 32 32"><path d="M15.5 1.333c2.022 0 3.75.706 5.183 2.117 1.434 1.411 2.15 3.128 2.15 5.15v.035a7.314 7.314 0 0 1-.769 3.275l.019-.043a7.43 7.43 0 0 1-2.099 2.588l-.017.012h-1.134V12.8a5.184 5.184 0 0 0 1.471-1.836l.013-.031c.326-.676.516-1.47.516-2.309v-.026.001c0-1.467-.522-2.711-1.566-3.733s-2.3-1.534-3.767-1.534-2.722.511-3.767 1.534c-1.043 1.022-1.566 2.266-1.566 3.733 0 .822.172 1.6.516 2.333a5.19 5.19 0 0 0 1.473 1.859l.011.008v2.4a7.305 7.305 0 0 1-2.916-2.701l-.018-.032a7.261 7.261 0 0 1-1.066-3.81v-.06.003c0-2.022.716-3.739 2.15-5.15 1.433-1.411 3.16-2.117 5.183-2.117zm-1.267 28c-.377 0-.733-.072-1.066-.216a2.764 2.764 0 0 1-.867-.584l-6.867-6.866L7.3 19.733c.311-.31.661-.55 1.05-.716a1.819 1.819 0 0 1 1.23-.081l-.013-.003 2.6.6V8.667c0-.934.322-1.723.966-2.367s1.434-.967 2.367-.967 1.722.323 2.367.967c.644.644.966 1.433.966 2.367V14.4h.867c.111 0 .211.022.3.067s.189.088.3.133l4.933 2.4c.534.244.928.639 1.184 1.183.255.545.327 1.106.216 1.684l-1.2 7.266a2.522 2.522 0 0 1-.928 1.58l-.005.004a2.68 2.68 0 0 1-1.714.616h-8.553zm-.266-2h9.366l1.434-8.3-6.1-3.033h-1.834V8.667c0-.4-.122-.723-.366-.967-.245-.244-.567-.367-.967-.367s-.722.123-.967.367c-.244.244-.366.567-.366.967v13.3l-5.134-1.1-.766.766 5.7 5.7zm9.366 0z" fill="var(--color3, #7eb101)"/></symbol><symbol id="icon-arrow" viewBox="0 0 34 32"><path d="M21.931 15.71a.9.9 0 0 1 0 1.276l-9.207 9.209a.9.9 0 0 1-1.278 0l-.425-.425a.902.902 0 0 1 0-1.28l8.142-8.139-8.142-8.144a.9.9 0 0 1 0-1.278l.425-.425a.902.902 0 0 1 1.28 0l9.205 9.207z"/></symbol><symbol id="icon-error" viewBox="0 0 32 32"><path fill="none" stroke="#ff705d" style="stroke:var(--color1,#ff705d)" stroke-linejoin="round" stroke-linecap="round" stroke-width="2.285" d="M16 11.429v6.856m0 8a1.144 1.144 0 1 0-.003-2.286H16a1.144 1.144 0 0 0-.003 2.286H16z"/><path fill="none" stroke="#ff705d" style="stroke:var(--color1,#ff705d)" stroke-linejoin="round" stroke-linecap="round" stroke-width="2.285" d="M18.035 2.4a2.284 2.284 0 0 0-4.06-.012l-.006.013L1.396 27.542a2.285 2.285 0 0 0 2.034 3.314h25.144a2.285 2.285 0 0 0 2.028-3.325l.006.013L18.035 2.397z"/></symbol></defs></svg>