<svg
  xmlns="http://www.w3.org/2000/svg"
  aria-hidden="true"
  overflow="hidden"
  style="position:absolute;width:0;height:0"
  version="1.1"
>
    <defs>
    <symbol id="burger" viewBox="0 0 43 32">
<path
        d="M0.592 3.556c0-1.146 0.929-2.075 2.075-2.075v0h37.333c1.146 0 2.075 0.929 2.075 2.075s-0.929 2.075-2.075 2.075h-37.333c-1.146 0-2.075-0.929-2.075-2.075v0zM0.592 16.066c0.001-1.145 0.929-2.073 2.075-2.073 0 0 0 0 0 0h37.333c1.119 0.034 2.014 0.949 2.014 2.074s-0.895 2.040-2.011 2.074l-0.003 0h-37.333c-1.146 0-2.075-0.929-2.075-2.075v0zM2.667 26.503c-1.119 0.034-2.014 0.949-2.014 2.074s0.895 2.040 2.011 2.074l0.003 0h37.333c0.018 0.001 0.039 0.001 0.061 0.001 1.146 0 2.075-0.929 2.075-2.075s-0.929-2.075-2.075-2.075c-0.021 0-0.043 0-0.064 0.001l0.003-0h-37.333z"
      />
</symbol>

    <symbol id="logo" viewBox="0 0 41 32">
<path
        fill="#ffe550"
        style="fill: var(--color1, #ffe550)"
        d="M14.121 6.486c1.014-1.99 3.864-1.99 4.878 0l1.263 2.476c0.397 0.767 1.126 1.315 1.992 1.456l0.016 0.002 2.759 0.439c2.203 0.351 3.082 3.042 1.508 4.62l-1.986 1.991c-0.492 0.493-0.796 1.173-0.796 1.925 0 0.15 0.012 0.296 0.035 0.439l-0.002-0.016 0.436 2.769c0.347 2.202-1.957 3.868-3.948 2.854l-2.472-1.258c-0.362-0.188-0.79-0.298-1.244-0.298s-0.882 0.11-1.26 0.306l0.015-0.007-2.471 1.258c-1.991 1.014-4.295-0.652-3.948-2.854l0.437-2.769c0.021-0.127 0.033-0.274 0.033-0.423 0-0.752-0.305-1.433-0.797-1.926v0l-1.986-1.99c-1.574-1.577-0.695-4.269 1.508-4.62l2.759-0.439c0.881-0.144 1.61-0.691 2.001-1.443l0.007-0.015 1.263-2.476z"
      />
<path
        fill="#2c2c2c"
        style="fill: var(--color4, #2c2c2c)"
        d="M1.118 20.356l-0.022 0.005c0.002 0.074-0.001 0.374-0.012 0.9-0.003 0.524-0.004 0.869-0.003 1.033 0 0.158-0.004 0.286-0.010 0.384l0.001 0.337c-0 0.105-0.008 0.207-0.022 0.308l0.001-0.012-0.018 0.207c-0.014 0.13-0.042 0.201-0.085 0.211-0.092 0.022-0.236-0.049-0.433-0.212-0.198-0.17-0.311-0.319-0.342-0.446s-0.037-1.061-0.021-2.8c0.023-1.74-0.023-2.885-0.137-3.434-0.011-0.035-0.017-0.075-0.017-0.116 0-0.056 0.011-0.11 0.032-0.159l-0.001 0.003c0.036-0.166 0.22-0.321 0.553-0.468 0.34-0.148 0.847-0.302 1.521-0.461 0.682-0.161 1.223-0.252 1.623-0.272 0.407-0.022 0.626 0.031 0.656 0.159 0.020 0.085-0.026 0.159-0.138 0.223-0.068 0.041-0.166 0.094-0.265 0.145l-0.034 0.015c-0.089 0.037-0.206 0.082-0.35 0.139-0.329 0.105-0.463 0.153-0.597 0.202l0.192-0.061c-0.126 0.037-0.289 0.091-0.49 0.161-0.194 0.068-0.374 0.133-0.538 0.194-0.167 0.055-0.392 0.134-0.675 0.238s-0.466 0.17-0.549 0.197c0.012 0.020 0.023 0.051 0.033 0.094 0.078 0.333 0.121 1.13 0.127 2.393 0.554-0.107 1.027-0.233 1.487-0.39l-0.078 0.023c0.501-0.164 0.809-0.258 0.922-0.286 0.27-0.063 0.418-0.039 0.445 0.074 0.052 0.22-0.214 0.477-0.796 0.772-0.575 0.294-1.229 0.526-1.96 0.7zM8.071 18.397c-0.058-0.247-0.154-0.465-0.283-0.66l0.005 0.007c-0.13-0.201-0.281-0.334-0.454-0.398-0.458 0.25-0.791 0.729-0.998 1.436-0.202 0.699-0.239 1.321-0.11 1.866s0.345 0.853 0.646 0.924c0.487-0.22 0.839-0.67 1.053-1.348 0.22-0.688 0.267-1.297 0.142-1.828zM5.292 19.155c0.118-0.611 0.334-1.141 0.647-1.589 0.32-0.457 0.689-0.735 1.108-0.834 0.426-0.101 0.823-0.004 1.193 0.289 0.368 0.287 0.613 0.689 0.735 1.206 0.121 0.511 0.12 1.064-0.001 1.661-0.123 0.59-0.363 1.114-0.719 1.572-0.351 0.449-0.772 0.732-1.262 0.849-0.362 0.086-0.703-0.009-1.023-0.286s-0.54-0.668-0.661-1.178c-0.122-0.517-0.128-1.080-0.017-1.69zM12.896 17.255c-0.058-0.247-0.153-0.465-0.282-0.66l0.005 0.007c-0.13-0.201-0.281-0.334-0.454-0.398-0.458 0.25-0.791 0.729-0.998 1.437-0.202 0.698-0.239 1.321-0.11 1.866s0.345 0.854 0.646 0.924c0.487-0.22 0.839-0.67 1.052-1.349 0.22-0.688 0.267-1.297 0.142-1.828zM10.118 18.013c0.118-0.611 0.334-1.141 0.647-1.589 0.319-0.457 0.689-0.735 1.108-0.834 0.426-0.101 0.823-0.004 1.193 0.29 0.368 0.287 0.613 0.689 0.735 1.206 0.121 0.51 0.121 1.063-0.001 1.66-0.124 0.602-0.375 1.132-0.726 1.581l0.006-0.008c-0.351 0.45-0.771 0.732-1.262 0.849-0.362 0.086-0.703-0.009-1.023-0.285s-0.54-0.669-0.661-1.179c-0.122-0.517-0.128-1.080-0.017-1.69zM17.934 11.014c0.113-0.027 0.277 0.047 0.49 0.22 0.219 0.165 0.351 0.34 0.394 0.524s0.079 0.729 0.106 1.636c0.025 0.898 0.029 1.836 0.012 2.812-0.022 2.19-0.114 3.303-0.278 3.342-0.099 0.023-0.223-0.010-0.373-0.102-0.143-0.101-0.226-0.197-0.248-0.289s-0.041-0.282-0.056-0.57c-0.529 0.873-1.052 1.371-1.57 1.494-0.313 0.074-0.63 0-0.953-0.223-0.316-0.225-0.51-0.489-0.582-0.794-0.103-0.439-0.11-0.987-0.018-1.644 0.107-0.712 0.332-1.352 0.656-1.93l-0.015 0.028c0.33-0.602 0.748-0.962 1.252-1.082s0.926 0.098 1.268 0.654c0.007-1.588-0.074-2.821-0.245-3.7-0.050-0.212 0.002-0.337 0.159-0.374zM17.995 16.508c-0.090-0.382-0.234-0.689-0.431-0.919-0.19-0.232-0.377-0.326-0.561-0.282-0.305 0.073-0.574 0.334-0.804 0.785-0.222 0.428-0.384 0.926-0.457 1.452l-0.003 0.025c-0.071 0.526-0.064 0.966 0.020 1.32 0.025 0.121 0.103 0.221 0.209 0.274l0.002 0.001c0.111 0.056 0.23 0.069 0.358 0.039 0.277-0.066 0.602-0.352 0.977-0.86 0.382-0.509 0.615-1.058 0.702-1.647l0.002-0.135-0.012-0.053zM24.793 15.864c0.137 0.581-0.010 1.132-0.441 1.652-0.434 0.514-0.991 0.852-1.673 1.013-0.674 0.16-1.273 0.118-1.795-0.125-0.524-0.25-0.823-0.53-0.897-0.842-0.050-0.212-0.011-0.334 0.117-0.364 0.113-0.027 0.377 0.090 0.791 0.351 0.156 0.090 0.353 0.163 0.591 0.219 0.245 0.054 0.489 0.053 0.73-0.004 0.497-0.118 0.907-0.35 1.231-0.695 0.33-0.347 0.46-0.67 0.39-0.967-0.046-0.191-0.231-0.406-0.557-0.642s-0.676-0.449-1.050-0.638c-0.401-0.215-0.743-0.434-1.066-0.677l0.021 0.015c-0.327-0.244-0.513-0.455-0.554-0.632-0.026-0.112-0.041-0.24-0.041-0.372 0-0.076 0.005-0.151 0.015-0.225l-0.001 0.009c0.025-0.215 0.068-0.378 0.132-0.491 0.205-0.37 0.568-0.751 1.090-1.145 0.529-0.394 0.993-0.638 1.39-0.732 0.206-0.049 0.396-0.023 0.569 0.078s0.278 0.226 0.314 0.375c0.017 0.071-0.044 0.145-0.184 0.223-0.126 0.074-0.336 0.184-0.549 0.29l-0.092 0.042c-0.283 0.134-0.53 0.275-0.743 0.423-0.743 0.505-1.080 0.902-1.011 1.193 0.037 0.156 0.555 0.493 1.555 1.012 0.385 0.201 0.748 0.455 1.091 0.763 0.348 0.299 0.558 0.597 0.628 0.895zM27.238 16.396c0.032 0.135 0.126 0.183 0.282 0.146 0.27-0.064 0.578-0.215 0.927-0.455 0.354-0.248 0.552-0.377 0.594-0.387 0.128-0.031 0.207 0.022 0.24 0.156 0.048 0.206-0.109 0.494-0.471 0.863-0.355 0.368-0.706 0.593-1.055 0.676-0.34 0.081-0.646 0.055-0.917-0.074-0.273-0.137-0.432-0.305-0.479-0.504s-0.063-0.46-0.050-0.784c0.012-0.332 0.036-0.768 0.074-1.308 0.042-0.549 0.070-1.001 0.084-1.355-0.315 0.157-0.529 0.249-0.643 0.276s-0.24-0.003-0.381-0.089c-0.135-0.095-0.215-0.196-0.24-0.302-0.041-0.17 0.383-0.442 1.269-0.817-0.011-0.618-0.071-1.154-0.178-1.607-0.050-0.213-0.004-0.336 0.138-0.369 0.121-0.029 0.288 0.014 0.503 0.127 0.212 0.107 0.342 0.256 0.386 0.447s0.065 0.542 0.058 1.052c0.229-0.084 0.548-0.181 0.873-0.265l0.083-0.018c0.426-0.1 0.661-0.059 0.705 0.126 0.025 0.106-0.071 0.222-0.289 0.348-0.21 0.125-0.667 0.349-1.37 0.673-0.017 0.594-0.053 1.28-0.11 2.057-0.058 0.769-0.068 1.231-0.032 1.387zM32.002 10.826c0.319-0.076 0.652 0.017 0.999 0.279 0.345 0.255 0.549 0.513 0.61 0.775 0.060 0.255 0.034 0.538-0.080 0.849 0.11 0.086 0.174 0.168 0.193 0.246 0.047 0.198 0.081 0.549 0.103 1.052 0.029 0.502 0.050 0.83 0.064 0.983 0.021 0.153 0.035 0.276 0.043 0.372 0.006 0.088 0.008 0.177 0.007 0.268 0.014 0.183-0.030 0.287-0.129 0.311-0.127 0.031-0.26-0.054-0.397-0.254-0.132-0.209-0.246-0.488-0.345-0.839-0.443 0.95-0.934 1.489-1.473 1.617-0.326 0.077-0.682 0.015-1.067-0.185-0.38-0.21-0.604-0.463-0.674-0.761-0.101-0.425-0.068-0.986 0.097-1.684 0.163-0.704 0.436-1.359 0.817-1.966s0.792-0.962 1.233-1.066zM32.934 12.58c-0.156-0.658-0.365-0.957-0.628-0.895-0.277 0.066-0.553 0.34-0.828 0.825-0.263 0.446-0.477 0.962-0.615 1.509l-0.009 0.041c-0.138 0.556-0.173 0.98-0.105 1.27 0.027 0.119 0.109 0.215 0.217 0.261l0.002 0.001c0.116 0.047 0.242 0.055 0.377 0.023 0.334-0.079 0.657-0.391 0.97-0.936 0.312-0.553 0.473-1.17 0.484-1.854-0.004-0.111 0.042-0.19 0.136-0.234l-0.002-0.011z"
      />
<path
        fill="#bbf330"
        style="fill: var(--color2, #bbf330)"
        d="M30.751 19.975c-0.305 0.080-0.545 0.306-0.642 0.597l-0.002 0.006c-1.907 5.652-7.247 9.717-13.529 9.717-3.81 0-7.274-1.495-9.835-3.934-0.165-0.16-0.391-0.259-0.64-0.259-0.075 0-0.149 0.009-0.219 0.026l0.006-0.001c-0.641 0.159-0.884 0.932-0.409 1.39 2.862 2.773 6.77 4.482 11.076 4.482 0.007 0 0.014 0 0.021 0h-0.001c7.079 0 13.084-4.606 15.186-10.986 0.207-0.626-0.371-1.198-1.013-1.040zM1.865 14.148c0.347-0.086 0.604-0.374 0.668-0.725 1.212-6.668 7.044-11.718 14.046-11.718 4.553 0 8.611 2.135 11.226 5.463 0.22 0.281 0.583 0.416 0.93 0.33 0.585-0.145 0.85-0.823 0.481-1.298-2.925-3.772-7.498-6.2-12.639-6.2-7.882 0-14.433 5.711-15.746 13.223-0.103 0.593 0.449 1.070 1.034 0.925zM40.615 5.332c-3.778 7.241-5.436 2.465-10.755 5.27 0.532-8.405 6.165-3.291 10.755-5.27z"
      />
</symbol>
        <symbol id="icon-arrow-left" viewBox="0 0 37 32">
            <path
        d="M2.667 21.333v-16A5.333 5.333 0 0 1 8 0h21.333a5.333 5.333 0 0 1 5.333 5.333v16a5.333 5.333 0 0 1-5.333 5.333H8a5.333 5.333 0 0 1-5.333-5.333z"
        fill="var(--color1, #fefefe)"
      />
            <path
        d="m11.633 13.937 9.289 8.85a.832.832 0 0 0 1.15 0l.01-.01a.764.764 0 0 0 0-1.111l-8.747-8.333 8.747-8.33a.765.765 0 0 0 .001-1.112l-.01-.01a.832.832 0 0 0-1.15 0l-9.289 8.85a.832.832 0 0 0 0 1.206z"
        fill="var(--color2, #2c2c2c)"
      />
        </symbol>
        <symbol id="icon-arrow-right" viewBox="0 0 37 32">
            <path
        d="M34.667 5.333v16a5.333 5.333 0 0 1-5.333 5.333H8.001a5.333 5.333 0 0 1-5.333-5.333v-16A5.333 5.333 0 0 1 8.001 0h21.333a5.333 5.333 0 0 1 5.333 5.333z"
        fill="var(--color1, #fefefe)"
      />
            <path
        d="m25.7 12.73-9.289-8.85a.832.832 0 0 0-1.15 0l-.01.01a.764.764 0 0 0 0 1.111l8.747 8.333-8.747 8.331a.764.764 0 0 0 0 1.111l.01.01a.832.832 0 0 0 1.15 0l9.289-8.85a.832.832 0 0 0 0-1.206z"
        fill="var(--color2, #2c2c2c)"
      />
        </symbol>
        <symbol id="icon-close" viewBox="0 0 30 32">
            <path
        d="m16.219 14.826 4.928-4.923a1.013 1.013 0 0 0-1.431-1.428l.001-.001-4.927 4.874-4.959-4.955a1.014 1.014 0 0 0-1.427 1.429l-.001-.002 4.948 5.006-4.847 4.782a1.013 1.013 0 1 0 1.429 1.43l.001-.001 4.836-4.832 4.806 4.801a1.014 1.014 0 0 0 1.427-1.429l.001.002-4.785-4.751z"
      />
        </symbol>
        <symbol id="icon-menu" viewBox="0 0 32 32">
            <path
        d="M2.666 8c0-.737.597-1.334 1.334-1.334h24a1.334 1.334 0 1 1 0 2.668H4A1.334 1.334 0 0 1 2.666 8zm0 8.042A1.335 1.335 0 0 1 4 14.709h24l.039-.001a1.334 1.334 0 1 1 0 2.668l-.041-.001H28 4a1.334 1.334 0 0 1-1.334-1.334zM4 22.752a1.334 1.334 0 0 0-.002 2.666H28l.039.001a1.334 1.334 0 1 0 0-2.668l-.041.001H28 4z"
        fill="var(--color3, #7eb101)"
      />
        </symbol>
        <symbol id="icon-rocket" viewBox="0 0 32 32">
            <path
        d="m7.233 13.633 3.534 1.5c.4-.8.827-1.588 1.283-2.366s.939-1.522 1.45-2.234L10.867 10l-3.634 3.633zm5.134 2.7 4.433 4.434a25.986 25.986 0 0 0 3.663-2.027l-.096.06c1.11-.733 2.01-1.444 2.7-2.133 1.8-1.8 3.122-3.645 3.966-5.534s1.3-4.022 1.367-6.4c-2.378.067-4.511.523-6.4 1.367s-3.733 2.167-5.533 3.967c-.69.689-1.4 1.589-2.134 2.7a25.405 25.405 0 0 0-1.899 3.404l-.067.162zm7.633-3.2c-.444-.444-.667-.994-.667-1.65 0-.655.223-1.205.667-1.65s.994-.666 1.65-.666 1.206.222 1.65.666c.444.445.667.995.667 1.65s-.223 1.206-.667 1.65c-.444.445-.994.667-1.65.667s-1.206-.222-1.65-.667zM19.5 25.9l3.633-3.633-.533-2.634c-.711.512-1.456.995-2.233 1.45-.572.349-1.347.776-2.137 1.178l-.23.106 1.5 3.533zM30.367 2.767c.2 3.022-.178 5.777-1.134 8.266-.955 2.49-2.533 4.834-4.733 7.034l-.067.066-.066.067.733 3.667c.067.333.05.655-.05.966-.1.312-.272.59-.517.834l-5.7 5.733L16 22.8l-5.667-5.667-6.6-2.833 5.734-5.7c.244-.244.522-.417.833-.517s.633-.116.967-.05l3.666.734a.247.247 0 0 1 .066-.049L15 8.717a.26.26 0 0 0 .067-.05c2.2-2.2 4.544-3.784 7.033-4.75s5.244-1.35 8.267-1.15zm-24.4 18.4c.777-.778 1.727-1.173 2.85-1.184 1.122-.01 2.072.373 2.85 1.15.777.778 1.16 1.728 1.15 2.85-.011 1.123-.406 2.073-1.184 2.85-.577.578-1.472 1.056-2.683 1.434S5.922 29 3.5 29.333c.333-2.422.683-4.244 1.05-5.466s.839-2.123 1.417-2.7zm1.4 1.433c-.311.333-.59.856-.834 1.567S6.078 25.789 5.9 26.9c1.111-.178 2.022-.389 2.733-.633.711-.245 1.234-.523 1.567-.834.422-.377.639-.85.65-1.416l.001-.061a2.02 2.02 0 0 0-.584-1.423 2.021 2.021 0 0 0-1.423-.584l-.064.001h.003a1.87 1.87 0 0 0-1.414.648l-.002.002z"
        fill="var(--color3, #7eb101)"
      />
        </symbol>
        <symbol id="icon-star" viewBox="0 0 34 32">
            <path
        d="M15.42 1.038c.584-1.384 2.576-1.384 3.16 0L22.028 9.2c.246.582.804.98 1.444 1.032l8.952.706c1.516.12 2.132 1.982.976 2.958l-6.82 5.752a1.666 1.666 0 0 0-.55 1.682l-.002-.011 2.084 8.6c.352 1.456-1.258 2.608-2.556 1.828l-7.664-4.61a1.734 1.734 0 0 0-1.792.004l.008-.004-7.664 4.61c-1.3.78-2.908-.372-2.556-1.828l2.084-8.6a1.663 1.663 0 0 0-.55-1.667l-.003-.002-6.82-5.75c-1.156-.976-.54-2.84.976-2.96l8.952-.704a1.714 1.714 0 0 0 1.44-1.021l.004-.011 3.448-8.164z"
        fill="var(--color4, #ffe550)"
      />
        </symbol>
        <symbol id="icon-touch-app" viewBox="0 0 32 32">
            <path
        d="M15.5 1.333c2.022 0 3.75.706 5.183 2.117 1.434 1.411 2.15 3.128 2.15 5.15v.035a7.314 7.314 0 0 1-.769 3.275l.019-.043a7.43 7.43 0 0 1-2.099 2.588l-.017.012h-1.134V12.8a5.184 5.184 0 0 0 1.471-1.836l.013-.031c.326-.676.516-1.47.516-2.309v-.026.001c0-1.467-.522-2.711-1.566-3.733s-2.3-1.534-3.767-1.534-2.722.511-3.767 1.534c-1.043 1.022-1.566 2.266-1.566 3.733 0 .822.172 1.6.516 2.333a5.19 5.19 0 0 0 1.473 1.859l.011.008v2.4a7.305 7.305 0 0 1-2.916-2.701l-.018-.032a7.261 7.261 0 0 1-1.066-3.81v-.06.003c0-2.022.716-3.739 2.15-5.15 1.433-1.411 3.16-2.117 5.183-2.117zm-1.267 28c-.377 0-.733-.072-1.066-.216a2.764 2.764 0 0 1-.867-.584l-6.867-6.866L7.3 19.733c.311-.31.661-.55 1.05-.716a1.819 1.819 0 0 1 1.23-.081l-.013-.003 2.6.6V8.667c0-.934.322-1.723.966-2.367s1.434-.967 2.367-.967 1.722.323 2.367.967c.644.644.966 1.433.966 2.367V14.4h.867c.111 0 .211.022.3.067s.189.088.3.133l4.933 2.4c.534.244.928.639 1.184 1.183.255.545.327 1.106.216 1.684l-1.2 7.266a2.522 2.522 0 0 1-.928 1.58l-.005.004a2.68 2.68 0 0 1-1.714.616h-8.553zm-.266-2h9.366l1.434-8.3-6.1-3.033h-1.834V8.667c0-.4-.122-.723-.366-.967-.245-.244-.567-.367-.967-.367s-.722.123-.967.367c-.244.244-.366.567-.366.967v13.3l-5.134-1.1-.766.766 5.7 5.7zm9.366 0z"
        fill="var(--color3, #7eb101)"
      />
        </symbol>
    </defs>
</svg>
