<svg xmlns="http://www.w3.org/2000/svg" aria-hidden="true" overflow="hidden" style="position:absolute;width:0;height:0"
    version="1.1">
    <defs>
        <symbol id="icon-arrow-left" viewBox="0 0 37 32">
            <path
                d="M2.667 21.333v-16A5.333 5.333 0 0 1 8 0h21.333a5.333 5.333 0 0 1 5.333 5.333v16a5.333 5.333 0 0 1-5.333 5.333H8a5.333 5.333 0 0 1-5.333-5.333z"
                fill="var(--color1, #fefefe)" />
            <path
                d="m11.633 13.937 9.289 8.85a.832.832 0 0 0 1.15 0l.01-.01a.764.764 0 0 0 0-1.111l-8.747-8.333 8.747-8.33a.765.765 0 0 0 .001-1.112l-.01-.01a.832.832 0 0 0-1.15 0l-9.289 8.85a.832.832 0 0 0 0 1.206z"
                fill="var(--color2, #2c2c2c)" />
        </symbol>
        <symbol id="icon-arrow-right" viewBox="0 0 37 32">
            <path
                d="M34.667 5.333v16a5.333 5.333 0 0 1-5.333 5.333H8.001a5.333 5.333 0 0 1-5.333-5.333v-16A5.333 5.333 0 0 1 8.001 0h21.333a5.333 5.333 0 0 1 5.333 5.333z"
                fill="var(--color1, #fefefe)" />
            <path
                d="m25.7 12.73-9.289-8.85a.832.832 0 0 0-1.15 0l-.01.01a.764.764 0 0 0 0 1.111l8.747 8.333-8.747 8.331a.764.764 0 0 0 0 1.111l.01.01a.832.832 0 0 0 1.15 0l9.289-8.85a.832.832 0 0 0 0-1.206z"
                fill="var(--color2, #2c2c2c)" />
        </symbol>
        <symbol id="icon-close" viewBox="0 0 30 32">
            <path
                d="m16.219 14.826 4.928-4.923a1.013 1.013 0 0 0-1.431-1.428l.001-.001-4.927 4.874-4.959-4.955a1.014 1.014 0 0 0-1.427 1.429l-.001-.002 4.948 5.006-4.847 4.782a1.013 1.013 0 1 0 1.429 1.43l.001-.001 4.836-4.832 4.806 4.801a1.014 1.014 0 0 0 1.427-1.429l.001.002-4.785-4.751z" />
        </symbol>
        <symbol id="icon-menu" viewBox="0 0 32 32">
            <path
                d="M2.666 8c0-.737.597-1.334 1.334-1.334h24a1.334 1.334 0 1 1 0 2.668H4A1.334 1.334 0 0 1 2.666 8zm0 8.042A1.335 1.335 0 0 1 4 14.709h24l.039-.001a1.334 1.334 0 1 1 0 2.668l-.041-.001H28 4a1.334 1.334 0 0 1-1.334-1.334zM4 22.752a1.334 1.334 0 0 0-.002 2.666H28l.039.001a1.334 1.334 0 1 0 0-2.668l-.041.001H28 4z"
                fill="var(--color3, #7eb101)" />
        </symbol>
        <symbol id="icon-rocket" viewBox="0 0 32 32">
            <path
                d="m7.233 13.633 3.534 1.5c.4-.8.827-1.588 1.283-2.366s.939-1.522 1.45-2.234L10.867 10l-3.634 3.633zm5.134 2.7 4.433 4.434a25.986 25.986 0 0 0 3.663-2.027l-.096.06c1.11-.733 2.01-1.444 2.7-2.133 1.8-1.8 3.122-3.645 3.966-5.534s1.3-4.022 1.367-6.4c-2.378.067-4.511.523-6.4 1.367s-3.733 2.167-5.533 3.967c-.69.689-1.4 1.589-2.134 2.7a25.405 25.405 0 0 0-1.899 3.404l-.067.162zm7.633-3.2c-.444-.444-.667-.994-.667-1.65 0-.655.223-1.205.667-1.65s.994-.666 1.65-.666 1.206.222 1.65.666c.444.445.667.995.667 1.65s-.223 1.206-.667 1.65c-.444.445-.994.667-1.65.667s-1.206-.222-1.65-.667zM19.5 25.9l3.633-3.633-.533-2.634c-.711.512-1.456.995-2.233 1.45-.572.349-1.347.776-2.137 1.178l-.23.106 1.5 3.533zM30.367 2.767c.2 3.022-.178 5.777-1.134 8.266-.955 2.49-2.533 4.834-4.733 7.034l-.067.066-.066.067.733 3.667c.067.333.05.655-.05.966-.1.312-.272.59-.517.834l-5.7 5.733L16 22.8l-5.667-5.667-6.6-2.833 5.734-5.7c.244-.244.522-.417.833-.517s.633-.116.967-.05l3.666.734a.247.247 0 0 1 .066-.049L15 8.717a.26.26 0 0 0 .067-.05c2.2-2.2 4.544-3.784 7.033-4.75s5.244-1.35 8.267-1.15zm-24.4 18.4c.777-.778 1.727-1.173 2.85-1.184 1.122-.01 2.072.373 2.85 1.15.777.778 1.16 1.728 1.15 2.85-.011 1.123-.406 2.073-1.184 2.85-.577.578-1.472 1.056-2.683 1.434S5.922 29 3.5 29.333c.333-2.422.683-4.244 1.05-5.466s.839-2.123 1.417-2.7zm1.4 1.433c-.311.333-.59.856-.834 1.567S6.078 25.789 5.9 26.9c1.111-.178 2.022-.389 2.733-.633.711-.245 1.234-.523 1.567-.834.422-.377.639-.85.65-1.416l.001-.061a2.02 2.02 0 0 0-.584-1.423 2.021 2.021 0 0 0-1.423-.584l-.064.001h.003a1.87 1.87 0 0 0-1.414.648l-.002.002z"
                fill="var(--color3, #7eb101)" />
        </symbol>
        <symbol id="icon-star" viewBox="0 0 34 32">
            <path
                d="M15.42 1.038c.584-1.384 2.576-1.384 3.16 0L22.028 9.2c.246.582.804.98 1.444 1.032l8.952.706c1.516.12 2.132 1.982.976 2.958l-6.82 5.752a1.666 1.666 0 0 0-.55 1.682l-.002-.011 2.084 8.6c.352 1.456-1.258 2.608-2.556 1.828l-7.664-4.61a1.734 1.734 0 0 0-1.792.004l.008-.004-7.664 4.61c-1.3.78-2.908-.372-2.556-1.828l2.084-8.6a1.663 1.663 0 0 0-.55-1.667l-.003-.002-6.82-5.75c-1.156-.976-.54-2.84.976-2.96l8.952-.704a1.714 1.714 0 0 0 1.44-1.021l.004-.011 3.448-8.164z"
                fill="var(--color4, #ffe550)" />
        </symbol>
        <symbol id="icon-touch-app" viewBox="0 0 32 32">
            <path
                d="M15.5 1.333c2.022 0 3.75.706 5.183 2.117 1.434 1.411 2.15 3.128 2.15 5.15v.035a7.314 7.314 0 0 1-.769 3.275l.019-.043a7.43 7.43 0 0 1-2.099 2.588l-.017.012h-1.134V12.8a5.184 5.184 0 0 0 1.471-1.836l.013-.031c.326-.676.516-1.47.516-2.309v-.026.001c0-1.467-.522-2.711-1.566-3.733s-2.3-1.534-3.767-1.534-2.722.511-3.767 1.534c-1.043 1.022-1.566 2.266-1.566 3.733 0 .822.172 1.6.516 2.333a5.19 5.19 0 0 0 1.473 1.859l.011.008v2.4a7.305 7.305 0 0 1-2.916-2.701l-.018-.032a7.261 7.261 0 0 1-1.066-3.81v-.06.003c0-2.022.716-3.739 2.15-5.15 1.433-1.411 3.16-2.117 5.183-2.117zm-1.267 28c-.377 0-.733-.072-1.066-.216a2.764 2.764 0 0 1-.867-.584l-6.867-6.866L7.3 19.733c.311-.31.661-.55 1.05-.716a1.819 1.819 0 0 1 1.23-.081l-.013-.003 2.6.6V8.667c0-.934.322-1.723.966-2.367s1.434-.967 2.367-.967 1.722.323 2.367.967c.644.644.966 1.433.966 2.367V14.4h.867c.111 0 .211.022.3.067s.189.088.3.133l4.933 2.4c.534.244.928.639 1.184 1.183.255.545.327 1.106.216 1.684l-1.2 7.266a2.522 2.522 0 0 1-.928 1.58l-.005.004a2.68 2.68 0 0 1-1.714.616h-8.553zm-.266-2h9.366l1.434-8.3-6.1-3.033h-1.834V8.667c0-.4-.122-.723-.366-.967-.245-.244-.567-.367-.967-.367s-.722.123-.967.367c-.244.244-.366.567-.366.967v13.3l-5.134-1.1-.766.766 5.7 5.7zm9.366 0z"
                fill="var(--color3, #7eb101)" />
        </symbol>
    </defs>
</svg>